<?xml version="1.0" standalone="no"?>
<!DOCTYPE svg PUBLIC "-//W3C//DTD SVG 20010904//EN"
 "http://www.w3.org/TR/2001/REC-SVG-20010904/DTD/svg10.dtd">
<svg version="1.0" xmlns="http://www.w3.org/2000/svg"
 width="1920.000000pt" height="1080.000000pt" viewBox="0 0 1920.000000 1080.000000"
 preserveAspectRatio="xMidYMid meet">

<g transform="translate(0.000000,1080.000000) scale(0.100000,-0.100000)"
fill="#000000" stroke="none">
<path d="M0 5400 l0 -5400 9600 0 9600 0 0 5400 0 5400 -9600 0 -9600 0 0
-5400z m5740 4151 c891 -45 1491 -106 2100 -212 640 -111 1147 -261 1519 -449
142 -72 132 -55 120 -195 -26 -319 50 -638 196 -820 189 -237 439 -340 960
-396 333 -36 583 -102 821 -219 67 -33 125 -60 129 -60 4 0 5 23 1 50 -4 32
-3 50 4 50 5 0 10 -3 10 -8 0 -10 113 -125 163 -166 48 -38 147 -96 166 -96 8
0 11 9 7 28 -2 15 -8 49 -11 76 l-7 49 149 -149 c97 -98 166 -159 201 -178 29
-15 55 -26 58 -23 2 2 -2 35 -10 73 -7 38 -17 87 -21 109 l-7 40 47 -45 c25
-25 96 -112 158 -193 l111 -148 127 3 c70 2 129 1 132 -2 32 -37 297 -454 297
-468 0 -5 -11 -14 -25 -20 -33 -15 -29 -22 60 -104 135 -123 268 -203 383
-230 29 -7 52 -15 52 -18 0 -3 -30 -18 -66 -34 -80 -36 -148 -94 -178 -153
l-23 -46 -27 46 c-28 48 -168 178 -307 283 -44 33 -172 111 -285 174 -121 67
-216 126 -233 145 -32 37 -47 119 -35 202 6 48 6 49 -33 75 -278 184 -1349
563 -1763 624 -460 67 -901 -118 -1176 -496 -254 -348 -318 -816 -163 -1193
96 -232 289 -442 535 -580 240 -135 393 -171 1384 -327 825 -129 1191 -204
1526 -311 436 -139 678 -285 995 -599 261 -259 453 -547 577 -866 43 -110 97
-292 89 -300 -3 -3 -8 10 -12 28 -11 51 -82 225 -127 308 -65 120 -164 267
-253 375 -140 170 -366 377 -520 477 -164 107 -604 306 -855 387 -131 42 -345
93 -377 89 -24 -3 -14 -11 73 -68 466 -303 943 -876 1234 -1482 198 -413 331
-862 359 -1213 9 -106 1 -226 -12 -195 -3 8 -27 100 -52 204 -118 479 -310
925 -573 1331 -395 608 -1013 1170 -1531 1391 -190 82 -382 126 -711 164 -479
56 -668 84 -884 131 -182 40 -281 75 -451 159 -463 230 -774 628 -872 1117
-27 134 -24 404 6 543 44 206 116 375 238 560 96 144 319 372 462 470 51 36
102 72 113 80 19 15 17 20 -62 180 -194 395 -307 754 -340 1074 -6 55 -12 101
-14 104 -7 7 -216 92 -336 137 -1231 460 -2758 690 -4620 696 l-355 1 85 24
85 23 690 -4 c380 -2 787 -8 905 -14z m3405 -920 l109 -6 18 -119 c10 -66 17
-120 15 -121 -1 -1 -69 4 -152 11 -646 55 -1551 58 -2345 9 -885 -55 -1879
-165 -2662 -295 -100 -16 -190 -30 -198 -30 -8 0 17 18 55 39 57 32 98 45 220
70 1017 206 2433 381 3485 431 124 6 252 12 285 13 119 6 1063 4 1170 -2z
m185 -423 c0 -7 14 -55 30 -107 17 -51 30 -97 30 -100 0 -4 -116 -13 -257 -19
-908 -41 -1855 -270 -2978 -720 -389 -156 -875 -381 -1125 -520 l-64 -36 22
29 c45 61 59 74 125 114 213 129 687 367 1082 544 378 169 963 385 1328 492
48 14 125 36 171 50 140 41 442 115 616 150 446 92 1020 160 1020 123z m1614
-253 c607 -220 1190 -558 1626 -943 168 -148 248 -230 229 -236 -8 -2 -29 -9
-47 -15 l-32 -10 -173 173 c-242 242 -487 424 -872 646 -185 106 -563 296
-727 365 -189 79 -190 88 -4 20z"/>
<path d="M12894 6401 c3 -18 6 -48 6 -65 0 -27 9 -36 65 -74 36 -23 65 -40 65
-37 0 4 -128 194 -138 205 -3 3 -2 -10 2 -29z"/>
</g>
</svg>
